<?xml version="1.0" encoding="UTF-8" standalone="no"?>
<!-- Created with Inkscape (http://www.inkscape.org/) -->

<svg
   xmlns:dc="http://purl.org/dc/elements/1.1/"
   xmlns:cc="http://creativecommons.org/ns#"
   xmlns:rdf="http://www.w3.org/1999/02/22-rdf-syntax-ns#"
   xmlns:svg="http://www.w3.org/2000/svg"
   xmlns="http://www.w3.org/2000/svg"
   version="1.1"
   width="72"
   height="72"
   id="svg3411">
  <defs
     id="defs3413">
    <linearGradient
       x1="8.380003"
       y1="11.838162"
       x2="8.380003"
       y2="122.09873"
       id="mx-gradient-e6e6e6-1-9e9e9e-1-s-0"
       gradientUnits="userSpaceOnUse"
       gradientTransform="matrix(0.5870184,0,0,0.60544234,39.254788,23.465718)">
      <stop
         id="stop3485"
         style="stop-color:#e6e6e6;stop-opacity:1"
         offset="0" />
      <stop
         id="stop3487"
         style="stop-color:#9e9e9e;stop-opacity:1"
         offset="1" />
    </linearGradient>
  </defs>
  <metadata
     id="metadata3416">
    <rdf:RDF>
      <cc:Work
         rdf:about="">
        <dc:format>image/svg+xml</dc:format>
        <dc:type
           rdf:resource="http://purl.org/dc/dcmitype/StillImage" />
        <dc:title></dc:title>
      </cc:Work>
    </rdf:RDF>
  </metadata>
  <g
     transform="translate(0,-980.3622)"
     id="layer1">
    <g
       transform="translate(-40.308032,953.24435)"
       id="g3489">
      <path
         d="m 57.735722,43.13897 c -14.30782,0 -17.884775,19.077094 -6.557752,23.250209 -11.327023,8.346228 1.19232,26.827163 10.730866,19.077094 6.55775,15.500127 28.019482,15.500127 35.173392,0 14.307812,0 14.307812,-15.50014 5.365432,-23.250209 C 111.39004,46.715925 97.082228,31.215787 84.562885,38.965857 75.620497,27.638832 61.312678,27.638832 57.735722,43.13897 z"
         id="path3491"
         style="fill:url(#mx-gradient-e6e6e6-1-9e9e9e-1-s-0);stroke:#000000;stroke-width:0.59615928;stroke-miterlimit:10" />
      <rect
         width="35.769558"
         height="10.730864"
         x="60.716522"
         y="60.427593"
         id="rect3493"
         style="fill:none;stroke:none" />
      <rect
         width="17.884779"
         height="5.9615912"
         x="87.990509"
         y="-4.1346354"
         transform="matrix(0.70710678,0.70710678,-0.70710678,0.70710678,0,0)"
         id="rect3495"
         style="fill:#000000;stroke:#000000;stroke-width:0.59615928" />
      <rect
         width="29.211803"
         height="6.5577517"
         x="-1.8786323"
         y="99.368347"
         transform="matrix(0.70710678,-0.70710678,0.70710678,0.70710678,0,0)"
         id="rect3497"
         style="fill:#000000;stroke:#000000;stroke-width:0.59615928" />
    </g>
  </g>
</svg>
